<svg xmlns="http://www.w3.org/2000/svg"
     viewBox="600 150 1000 900"
     preserveAspectRatio="xMidYMid meet">
  <g>
    <path fill="#cf404d" d="M1378.634,241.28l-85.231-1.85l-85.231-1.355l-170.461-2.11l-170.461-1.239l-170.462-0.38
      l-31.682-0.07l0.08,31.672l0.431,170.462l1.26,170.461l2.122,170.462c0.731,56.82,1.938,113.641,3.216,170.461l0.565,25.128
      l24.008-0.555c58.245-1.346,116.479-2.311,174.325-4.319l172.506-5.992l335.016-14.262l-346.831-14.262l-168.418-5.992
      c-47.375-1.704-94.469-2.666-141.516-3.739c1.074-48.823,2.078-97.646,2.705-146.469l2.123-170.462l1.259-170.461l0.351-138.932
      l138.941-0.309l170.461-1.238l170.461-2.111l85.231-1.354l61.148-1.327c1.078,47.01,2.068,94.058,3.733,141.39l6.011,168.404
      l14.339,346.864l14.339-334.984l6.012-172.519c1.961-57.86,2.974-116.091,4.316-174.344l0.555-24.12L1378.634,241.28z"/>
    <polygon fill="#880011" points="1423.108,163.674 984.916,597.653 796.642,420.072 606.003,622.18 988.348,982.796 
      1601.546,332.65"/>
    <polygon fill="#cf404d" points="1463.019,201.978 987.087,677.916 798.67,489.492 667.777,620.373 987.087,939.684 
      1593.9,332.871"/>
  </g>
</svg>


