<svg xmlns="http://www.w3.org/2000/svg"
     viewBox="600 1100 900 900"
     preserveAspectRatio="xMidYMid meet">
  <g>
    <path fill="#cf404d" d="M1378.634,1185.378l-85.231-1.85l-85.231-1.354l-170.461-2.111l-170.461-1.238l-170.462-0.38
      l-31.682-0.071l0.08,31.672l0.431,170.461l1.26,170.461l2.122,170.462c0.731,56.82,1.938,113.642,3.216,170.462l0.565,25.127
      l24.008-0.554c58.245-1.346,116.479-2.311,174.325-4.318l172.506-5.992l335.016-14.262l-346.831-14.263l-168.418-5.992
      c-47.375-1.704-94.469-2.666-141.516-3.739c1.074-48.823,2.078-97.646,2.705-146.469l2.123-170.462l1.259-170.461l0.351-138.932
      l138.941-0.31l170.461-1.238l170.461-2.11l85.231-1.355l61.148-1.327c1.078,47.01,2.068,94.058,3.733,141.39l6.011,168.404
      l14.339,346.864l14.339-334.984l6.012-172.52c1.961-57.859,2.974-116.09,4.316-174.343l0.555-24.12L1378.634,1185.378z"/>
    <polygon fill="#880011" points="1265.207,1118.231 1035.321,1358.897 805.433,1139.301 611.494,1342.352 
                      852.159,1572.237 632.57,1802.124 807.914,1969.614 1037.802,1728.948 
                      1267.688,1948.537 1408.742,1800.882 1202.747,1604.121 1495.694,1338.394"/>
    <polygon fill="#cf404d" points="1168.068,1570.996 1398.196,1340.868 1267.309,1209.981 1037.181,1440.11 
                      807.053,1209.976 676.172,1340.868 906.3,1570.996 676.172,1801.125 
                      807.053,1932.006 1037.181,1701.877 1267.309,1932.006 1398.202,1801.125"/>
  </g>
</svg>


